<svg width="23" height="23" viewBox="0 0 23 23" fill="none" xmlns="http://www.w3.org/2000/svg">
<rect x="0.599365" y="0.490051" width="22" height="22" rx="11" fill="#37424D"/>
<path d="M9.1071 9.99733C9.1071 7.84949 10.484 6.03202 12.4115 5.3161C11.9159 5.15088 11.3651 5.04071 10.7594 5.04071C8.00569 5.04071 5.80273 7.24367 5.80273 9.99733C5.80273 12.751 8.00569 14.9539 10.7594 14.9539C11.3652 14.9539 11.9159 14.8438 12.4115 14.6786C10.484 13.9626 9.1071 12.1452 9.1071 9.99733Z" fill="#797979"/>
<path d="M5.2518 5.59142C5.2518 5.92185 5.03153 6.14212 4.7011 6.14212C4.37066 6.14212 4.15039 5.92185 4.15039 5.59142C4.15039 5.26098 4.37066 5.04071 4.7011 5.04071C5.03153 5.04071 5.2518 5.26098 5.2518 5.59142Z" fill="#797979"/>
<path d="M14.0636 17.157C14.0636 17.4874 13.8433 17.7077 13.5129 17.7077C13.1824 17.7077 12.9622 17.4874 12.9622 17.157C12.9622 16.8265 13.1824 16.6063 13.5129 16.6063C13.8433 16.6063 14.0636 16.8265 14.0636 17.157Z" fill="#797979"/>
<path d="M5.80241 19.3598C5.47198 19.3598 5.25171 19.1396 5.25171 18.8091V16.6062C5.25171 16.2757 5.47198 16.0555 5.80241 16.0555C6.13285 16.0555 6.35312 16.2757 6.35312 16.6062V18.8091C6.35319 19.1395 6.13285 19.3598 5.80241 19.3598Z" fill="#797979"/>
<path d="M6.90405 18.2585H4.7011C4.37066 18.2585 4.15039 18.0382 4.15039 17.7077C4.15039 17.3773 4.37066 17.157 4.7011 17.157H6.90405C7.23449 17.157 7.45476 17.3773 7.45476 17.7077C7.45482 18.0382 7.23449 18.2585 6.90405 18.2585Z" fill="#797979"/>
<path d="M16.8175 5.59149C16.8175 6.80314 15.8261 7.79445 14.6145 7.79445C15.8261 7.79445 16.8175 8.78576 16.8175 9.9974C16.8175 8.78576 17.8088 7.79445 19.0204 7.79445C17.8088 7.79445 16.8175 6.80307 16.8175 5.59149Z" fill="#797979"/>
<path d="M10.759 15.5048C7.72998 15.5048 5.25171 13.0265 5.25171 9.9975C5.25171 6.96845 7.72998 4.49017 10.759 4.49017C11.3649 4.49017 11.9707 4.60034 12.5764 4.82061C12.7967 4.87566 12.9619 5.096 12.9619 5.31627C12.9619 5.53653 12.7967 5.75687 12.5764 5.81192C10.8141 6.47279 9.65755 8.12498 9.65755 9.9975C9.65755 11.87 10.8141 13.5222 12.5764 14.128C12.7967 14.1831 12.9619 14.4034 12.9619 14.6237C12.9619 14.8439 12.7967 15.0643 12.5764 15.1193C11.9707 15.3947 11.3649 15.5048 10.759 15.5048ZM10.759 5.59159C8.33581 5.59159 6.35312 7.57421 6.35312 9.9975C6.35312 12.4208 8.33574 14.4034 10.759 14.4034C9.38217 13.357 8.55608 11.7598 8.55608 9.9975C8.55608 8.23514 9.38223 6.63795 10.759 5.59159Z" fill="#FFE100"/>
<path d="M16.8173 10.5481C16.4869 10.5481 16.2666 10.3279 16.2666 9.99744C16.2666 9.06118 15.5507 8.34526 14.6144 8.34526C14.284 8.34526 14.0637 8.12499 14.0637 7.79455C14.0637 7.46411 14.284 7.24384 14.6144 7.24384C15.5507 7.24384 16.2666 6.52792 16.2666 5.59166C16.2666 5.26122 16.4869 5.04095 16.8173 5.04095C17.1478 5.04095 17.368 5.26122 17.368 5.59166C17.368 6.52792 18.0839 7.24384 19.0202 7.24384C19.3506 7.24384 19.5709 7.46411 19.5709 7.79455C19.5709 8.12499 19.3506 8.34526 19.0202 8.34526C18.0839 8.34526 17.368 9.06118 17.368 9.99744C17.3681 10.3278 17.1478 10.5481 16.8173 10.5481ZM16.2666 7.79448C16.4869 7.9597 16.6521 8.12492 16.8173 8.34519C16.9825 8.12492 17.1478 7.9597 17.368 7.79448C17.1478 7.62927 16.9825 7.46405 16.8173 7.24378C16.6521 7.46405 16.4869 7.62927 16.2666 7.79448Z" fill="#FFE100"/>
<path d="M5.25188 18.8091C4.92144 18.8091 4.70117 18.5888 4.70117 18.2584V16.0554C4.70117 15.725 4.92144 15.5047 5.25188 15.5047C5.58231 15.5047 5.80258 15.725 5.80258 16.0554V18.2584C5.80258 18.5888 5.58231 18.8091 5.25188 18.8091Z" fill="#FFE100"/>
<path d="M6.35303 17.7077H4.15007C3.81963 17.7077 3.59937 17.4874 3.59937 17.157C3.59937 16.8265 3.81963 16.6063 4.15007 16.6063H6.35303C6.68346 16.6063 6.90373 16.8265 6.90373 17.157C6.90373 17.4873 6.68346 17.7077 6.35303 17.7077Z" fill="#FFE100"/>
<path d="M4.70078 5.04076C4.70078 5.37119 4.48051 5.59146 4.15007 5.59146C3.81963 5.59146 3.59937 5.37119 3.59937 5.04076C3.59937 4.71032 3.81963 4.49005 4.15007 4.49005C4.48051 4.49005 4.70078 4.71032 4.70078 5.04076Z" fill="#FFE100"/>
<path d="M13.513 16.6062C13.513 16.9366 13.2928 17.1569 12.9623 17.1569C12.6319 17.1569 12.4116 16.9366 12.4116 16.6062C12.4116 16.2757 12.6319 16.0555 12.9623 16.0555C13.2928 16.0555 13.513 16.2757 13.513 16.6062Z" fill="#FFE100"/>
<mask id="mask0" mask-type="alpha" maskUnits="userSpaceOnUse" x="0" y="0" width="23" height="23">
<rect x="0.599365" y="0.490051" width="22" height="22" rx="11" fill="white"/>
</mask>
<g mask="url(#mask0)">
<path d="M20.1288 19.3165C20.1288 19.647 19.9085 19.8672 19.5781 19.8672C19.2476 19.8672 19.0273 19.647 19.0273 19.3165C19.0273 18.9861 19.2476 18.7658 19.5781 18.7658C19.9085 18.7658 20.1288 18.9861 20.1288 19.3165Z" fill="#797979"/>
<path d="M20.1288 22.621C20.1288 22.9514 19.9085 23.1717 19.5781 23.1717C19.2476 23.1717 19.0273 22.9514 19.0273 22.621C19.0273 22.2905 19.2476 22.0703 19.5781 22.0703C19.9085 22.0703 20.1288 22.2905 20.1288 22.621Z" fill="#797979"/>
<path d="M22.3321 19.3165C22.3321 19.647 22.1119 19.8672 21.7814 19.8672C21.451 19.8672 21.2307 19.647 21.2307 19.3165C21.2307 18.9861 21.451 18.7658 21.7814 18.7658C22.1119 18.7657 22.3321 18.9861 22.3321 19.3165Z" fill="#797979"/>
<path d="M23.4334 20.9686C23.4334 21.2991 23.2132 21.5193 22.8827 21.5193C22.5523 21.5193 22.332 21.2991 22.332 20.9686C22.332 20.6382 22.5523 20.4179 22.8827 20.4179C23.2132 20.4179 23.4334 20.6382 23.4334 20.9686Z" fill="#797979"/>
<path d="M21.2308 20.9686C21.2308 21.2991 21.0105 21.5193 20.6801 21.5193C20.3497 21.5193 20.1294 21.2991 20.1294 20.9686C20.1294 20.6382 20.3497 20.4179 20.6801 20.4179C21.0105 20.4179 21.2308 20.6382 21.2308 20.9686Z" fill="#797979"/>
<path d="M22.3321 22.621C22.3321 22.9514 22.1119 23.1717 21.7814 23.1717C21.451 23.1717 21.2307 22.9514 21.2307 22.621C21.2307 22.2905 21.451 22.0703 21.7814 22.0703C22.1119 22.0703 22.3321 22.2905 22.3321 22.621Z" fill="#797979"/>
<path d="M13.5201 19.3165C13.5201 19.647 13.2998 19.8672 12.9694 19.8672C12.639 19.8672 12.4187 19.647 12.4187 19.3165C12.4187 18.9861 12.639 18.7658 12.9694 18.7658C13.2998 18.7657 13.5201 18.9861 13.5201 19.3165Z" fill="#797979"/>
<path d="M13.5201 22.621C13.5201 22.9514 13.2998 23.1717 12.9694 23.1717C12.639 23.1717 12.4187 22.9514 12.4187 22.621C12.4187 22.2905 12.639 22.0703 12.9694 22.0703C13.2998 22.0703 13.5201 22.2905 13.5201 22.621Z" fill="#797979"/>
<path d="M14.6219 17.6642C14.6219 17.9946 14.4016 18.2149 14.0712 18.2149C13.7408 18.2149 13.5205 17.9946 13.5205 17.6642C13.5205 17.3337 13.7408 17.1135 14.0712 17.1135C14.4016 17.1135 14.6219 17.3337 14.6219 17.6642Z" fill="#797979"/>
<path d="M15.7232 19.3165C15.7232 19.647 15.503 19.8672 15.1725 19.8672C14.8421 19.8672 14.6218 19.647 14.6218 19.3165C14.6218 18.9861 14.8421 18.7658 15.1725 18.7658C15.503 18.7658 15.7232 18.9861 15.7232 19.3165Z" fill="#797979"/>
<path d="M17.9264 19.3165C17.9264 19.647 17.7061 19.8672 17.3757 19.8672C17.0452 19.8672 16.825 19.647 16.825 19.3165C16.825 18.9861 17.0452 18.7658 17.3757 18.7658C17.706 18.7657 17.9264 18.9861 17.9264 19.3165Z" fill="#797979"/>
<path d="M19.0274 20.9686C19.0274 21.2991 18.8072 21.5193 18.4767 21.5193C18.1463 21.5193 17.926 21.2991 17.926 20.9686C17.926 20.6382 18.1463 20.4179 18.4767 20.4179C18.8071 20.4179 19.0274 20.6382 19.0274 20.9686Z" fill="#797979"/>
<path d="M16.8248 20.9686C16.8248 21.2991 16.6045 21.5193 16.2741 21.5193C15.9437 21.5193 15.7234 21.2991 15.7234 20.9686C15.7234 20.6382 15.9437 20.4179 16.2741 20.4179C16.6045 20.4179 16.8248 20.6382 16.8248 20.9686Z" fill="#797979"/>
<path d="M14.6219 20.9686C14.6219 21.2991 14.4016 21.5193 14.0712 21.5193C13.7408 21.5193 13.5205 21.2991 13.5205 20.9686C13.5205 20.6382 13.7408 20.4179 14.0712 20.4179C14.4016 20.4179 14.6219 20.6382 14.6219 20.9686Z" fill="#797979"/>
<path d="M17.9264 22.621C17.9264 22.9514 17.7061 23.1717 17.3757 23.1717C17.0452 23.1717 16.825 22.9514 16.825 22.621C16.825 22.2905 17.0452 22.0703 17.3757 22.0703C17.706 22.0703 17.9264 22.2905 17.9264 22.621Z" fill="#797979"/>
<path d="M15.7232 22.621C15.7232 22.9514 15.503 23.1717 15.1725 23.1717C14.8421 23.1717 14.6218 22.9514 14.6218 22.621C14.6218 22.2905 14.8421 22.0703 15.1725 22.0703C15.503 22.0703 15.7232 22.2905 15.7232 22.621Z" fill="#797979"/>
<path d="M11.3175 19.3165C11.3175 19.647 11.0972 19.8672 10.7668 19.8672C10.4363 19.8672 10.2161 19.647 10.2161 19.3165C10.2161 18.9861 10.4363 18.7658 10.7668 18.7658C11.0972 18.7657 11.3175 18.9861 11.3175 19.3165Z" fill="#797979"/>
<path d="M12.4186 20.9686C12.4186 21.2991 12.1983 21.5193 11.8678 21.5193C11.5374 21.5193 11.3171 21.2991 11.3171 20.9686C11.3171 20.6382 11.5374 20.4179 11.8678 20.4179C12.1983 20.4179 12.4186 20.6382 12.4186 20.9686Z" fill="#797979"/>
<path d="M10.2162 20.9686C10.2162 21.2991 9.99589 21.5193 9.66545 21.5193C9.33502 21.5193 9.11475 21.2991 9.11475 20.9686C9.11475 20.6382 9.33502 20.4179 9.66545 20.4179C9.99589 20.4179 10.2162 20.6382 10.2162 20.9686Z" fill="#797979"/>
<path d="M8.01303 20.9686C8.01303 21.2991 7.79276 21.5193 7.46233 21.5193C7.13189 21.5193 6.91162 21.2991 6.91162 20.9686C6.91162 20.6382 7.13189 20.4179 7.46233 20.4179C7.79276 20.4179 8.01303 20.6382 8.01303 20.9686Z" fill="#797979"/>
<path d="M11.3175 22.621C11.3175 22.9514 11.0972 23.1717 10.7668 23.1717C10.4363 23.1717 10.2161 22.9514 10.2161 22.621C10.2161 22.2905 10.4363 22.0703 10.7668 22.0703C11.0972 22.0703 11.3175 22.2905 11.3175 22.621Z" fill="#797979"/>
<path d="M9.11435 22.621C9.11435 22.9514 8.89408 23.1717 8.56365 23.1717C8.23321 23.1717 8.01294 22.9514 8.01294 22.621C8.01294 22.2905 8.23321 22.0703 8.56365 22.0703C8.89408 22.0703 9.11435 22.2905 9.11435 22.621Z" fill="#797979"/>
<path d="M6.91147 22.621C6.91147 22.9514 6.6912 23.1717 6.36076 23.1717C6.03033 23.1717 5.81006 22.9514 5.81006 22.621C5.81006 22.2905 6.03033 22.0703 6.36076 22.0703C6.6912 22.0703 6.91147 22.2905 6.91147 22.621Z" fill="#797979"/>
<path d="M36.1003 24.824C33.7873 24.824 29.877 21.5195 29.4364 21.1891L29.3814 21.134L29.2162 20.9688C26.5726 17.9948 22.4421 16.8934 18.642 18.105C17.5956 18.4354 16.7145 18.7108 16.7145 18.7108C16.5493 18.7659 16.329 18.7108 16.1638 18.6007C15.9986 18.4905 15.9435 18.2702 15.9986 18.105C16.0536 17.8847 15.9986 17.7746 15.9435 17.6644C15.7232 17.2789 14.9522 17.1137 14.6218 17.1137C10.1057 17.1137 5.14913 22.4007 5.09401 22.4558C4.87374 22.6761 4.5433 22.6761 4.32297 22.5108C4.1027 22.2906 4.1027 21.9601 4.26792 21.7398C4.5433 21.4644 9.61002 16.0121 14.6768 16.0121C14.842 16.0121 16.2189 16.1223 16.8798 16.9484C16.9899 17.1136 17.1 17.2788 17.1551 17.4441C17.4856 17.3339 17.9262 17.2238 18.3668 17.0586C22.6074 15.6817 27.1785 16.9484 30.0974 20.1978L30.2076 20.308C31.3091 21.2993 34.5033 23.7225 36.1005 23.7225C36.4309 23.7225 36.6512 23.9428 36.6512 24.2732C36.6512 24.6036 36.4308 24.824 36.1003 24.824Z" fill="#797979"/>
<path d="M36.1003 24.2732C33.8423 24.2732 29.3814 21.0239 28.8857 20.6383C28.8307 20.6383 28.8307 20.5833 28.7755 20.5833L28.6654 20.418C26.0218 17.4441 21.8914 16.3426 18.0913 17.5542C17.0448 17.8847 16.1637 18.16 16.1637 18.16C15.9985 18.2151 15.7782 18.16 15.613 18.0499C15.4478 17.9397 15.3927 17.7194 15.4478 17.5542C15.5028 17.3339 15.4478 17.2238 15.3927 17.1136C15.1725 16.7281 14.4014 16.5629 14.071 16.5629C9.55496 16.5629 4.59835 21.85 4.54323 21.905C4.32296 22.1253 3.99252 22.1253 3.77219 21.9601C3.55192 21.7398 3.55192 21.4094 3.71714 21.189C3.99252 20.9136 9.05924 15.4614 14.126 15.4614C14.2912 15.4614 15.6681 15.5715 16.329 16.3976C16.4391 16.5628 16.5493 16.7281 16.6044 16.8933C16.9348 16.7831 17.3754 16.673 17.816 16.5078C22.0567 15.1309 26.6278 16.3976 29.5466 19.647L29.6568 19.7572C30.9235 20.7485 34.5033 23.1717 36.1004 23.1717C36.4308 23.1717 36.6511 23.392 36.6511 23.7224C36.6511 24.0529 36.4308 24.2732 36.1003 24.2732Z" fill="#FFE100"/>
<path d="M36.6511 24.2732C34.3931 24.2732 29.9321 21.0239 29.4365 20.6383C29.3814 20.6383 29.3814 20.5833 29.3263 20.5833L29.2162 20.418C26.5726 17.4441 22.4421 16.3426 18.642 17.5542C17.5956 17.8847 16.7145 18.16 16.7145 18.16C16.5493 18.2151 16.329 18.16 16.1638 18.0499C15.9986 17.9397 15.9435 17.7194 15.9986 17.5542C16.0536 17.3339 15.9986 17.2238 15.9435 17.1136C15.7232 16.7281 14.9522 16.5629 14.6218 16.5629C10.1057 16.5629 5.14913 21.85 5.09401 21.905C4.87374 22.1253 4.5433 22.1253 4.32297 21.9601C4.1027 21.7398 4.1027 21.4094 4.26792 21.189C4.5433 20.9136 9.61002 15.4614 14.6768 15.4614C14.842 15.4614 16.2189 15.5715 16.8798 16.3976C16.9899 16.5628 17.1 16.7281 17.1551 16.8933C17.4856 16.7831 17.9262 16.673 18.3668 16.5078C22.6074 15.1309 27.1786 16.3976 30.0974 19.647L30.2076 19.7572C31.4743 20.7485 35.054 23.1717 36.6512 23.1717C36.9816 23.1717 37.2019 23.392 37.2019 23.7224C37.2018 24.0529 36.9816 24.2732 36.6511 24.2732Z" fill="#FFE100"/>
<path d="M19.5782 18.7657C19.5782 19.0962 19.3579 19.3164 19.0275 19.3164C18.6971 19.3164 18.4768 19.0962 18.4768 18.7657C18.4768 18.4353 18.6971 18.215 19.0275 18.215C19.3579 18.215 19.5782 18.4353 19.5782 18.7657Z" fill="#FFE100"/>
<path d="M19.5782 22.0702C19.5782 22.4006 19.3579 22.6209 19.0275 22.6209C18.6971 22.6209 18.4768 22.4006 18.4768 22.0702C18.4768 21.7397 18.6971 21.5195 19.0275 21.5195C19.3579 21.5195 19.5782 21.7397 19.5782 22.0702Z" fill="#FFE100"/>
<path d="M21.7813 18.7657C21.7813 19.0962 21.5611 19.3164 21.2306 19.3164C20.9002 19.3164 20.6799 19.0962 20.6799 18.7657C20.6799 18.4353 20.9002 18.215 21.2306 18.215C21.5611 18.215 21.7813 18.4353 21.7813 18.7657Z" fill="#FFE100"/>
<path d="M22.8829 20.4181C22.8829 20.7485 22.6626 20.9688 22.3322 20.9688C22.0018 20.9688 21.7815 20.7485 21.7815 20.4181C21.7815 20.0876 22.0018 19.8674 22.3322 19.8674C22.6626 19.8674 22.8829 20.0876 22.8829 20.4181Z" fill="#FFE100"/>
<path d="M20.68 20.4181C20.68 20.7485 20.4598 20.9688 20.1293 20.9688C19.7989 20.9688 19.5786 20.7485 19.5786 20.4181C19.5786 20.0876 19.7989 19.8674 20.1293 19.8674C20.4598 19.8673 20.68 20.0876 20.68 20.4181Z" fill="#FFE100"/>
<path d="M20.68 17.1136C20.68 17.4441 20.4598 17.6643 20.1293 17.6643C19.7989 17.6643 19.5786 17.4441 19.5786 17.1136C19.5786 16.7832 19.7989 16.5629 20.1293 16.5629C20.4598 16.5629 20.68 16.7832 20.68 17.1136Z" fill="#FFE100"/>
<path d="M22.8829 17.1136C22.8829 17.4441 22.6626 17.6643 22.3322 17.6643C22.0018 17.6643 21.7815 17.4441 21.7815 17.1136C21.7815 16.7832 22.0018 16.5629 22.3322 16.5629C22.6626 16.5629 22.8829 16.7832 22.8829 17.1136Z" fill="#FFE100"/>
<path d="M21.7813 22.0702C21.7813 22.4006 21.5611 22.6209 21.2306 22.6209C20.9002 22.6209 20.6799 22.4006 20.6799 22.0702C20.6799 21.7397 20.9002 21.5195 21.2306 21.5195C21.5611 21.5195 21.7813 21.7397 21.7813 22.0702Z" fill="#FFE100"/>
<path d="M12.9693 18.7657C12.9693 19.0962 12.7491 19.3164 12.4186 19.3164C12.0882 19.3164 11.8679 19.0962 11.8679 18.7657C11.8679 18.4353 12.0882 18.215 12.4186 18.215C12.749 18.215 12.9693 18.4353 12.9693 18.7657Z" fill="#FFE100"/>
<path d="M12.9693 22.0702C12.9693 22.4006 12.7491 22.6209 12.4186 22.6209C12.0882 22.6209 11.8679 22.4006 11.8679 22.0702C11.8679 21.7397 12.0882 21.5195 12.4186 21.5195C12.749 21.5195 12.9693 21.7397 12.9693 22.0702Z" fill="#FFE100"/>
<path d="M14.0711 17.1136C14.0711 17.4441 13.8509 17.6643 13.5204 17.6643C13.19 17.6643 12.9697 17.4441 12.9697 17.1136C12.9697 16.7832 13.19 16.5629 13.5204 16.5629C13.8509 16.5629 14.0711 16.7832 14.0711 17.1136Z" fill="#FFE100"/>
<path d="M11.8683 17.1136C11.8683 17.4441 11.648 17.6643 11.3176 17.6643C10.9871 17.6643 10.7668 17.4441 10.7668 17.1136C10.7668 16.7832 10.9871 16.5629 11.3176 16.5629C11.6479 16.5629 11.8683 16.7832 11.8683 17.1136Z" fill="#FFE100"/>
<path d="M15.1727 18.7657C15.1727 19.0962 14.9524 19.3164 14.622 19.3164C14.2916 19.3164 14.0713 19.0962 14.0713 18.7657C14.0713 18.4353 14.2916 18.215 14.622 18.215C14.9524 18.215 15.1727 18.4353 15.1727 18.7657Z" fill="#FFE100"/>
<path d="M17.3756 18.7657C17.3756 19.0962 17.1553 19.3164 16.8249 19.3164C16.4944 19.3164 16.2742 19.0962 16.2742 18.7657C16.2742 18.4353 16.4944 18.215 16.8249 18.215C17.1553 18.215 17.3756 18.4353 17.3756 18.7657Z" fill="#FFE100"/>
<path d="M18.4767 20.4181C18.4767 20.7485 18.2564 20.9688 17.9259 20.9688C17.5955 20.9688 17.3752 20.7485 17.3752 20.4181C17.3752 20.0876 17.5955 19.8674 17.9259 19.8674C18.2564 19.8674 18.4767 20.0876 18.4767 20.4181Z" fill="#FFE100"/>
<path d="M16.274 20.4181C16.274 20.7485 16.0538 20.9688 15.7233 20.9688C15.3929 20.9688 15.1726 20.7485 15.1726 20.4181C15.1726 20.0876 15.3929 19.8674 15.7233 19.8674C16.0538 19.8673 16.274 20.0876 16.274 20.4181Z" fill="#FFE100"/>
<path d="M14.0711 20.4181C14.0711 20.7485 13.8509 20.9688 13.5204 20.9688C13.19 20.9688 12.9697 20.7485 12.9697 20.4181C12.9697 20.0876 13.19 19.8674 13.5204 19.8674C13.8509 19.8674 14.0711 20.0876 14.0711 20.4181Z" fill="#FFE100"/>
<path d="M17.3756 22.0702C17.3756 22.4006 17.1553 22.6209 16.8249 22.6209C16.4944 22.6209 16.2742 22.4006 16.2742 22.0702C16.2742 21.7397 16.4944 21.5195 16.8249 21.5195C17.1553 21.5195 17.3756 21.7397 17.3756 22.0702Z" fill="#FFE100"/>
<path d="M15.1727 22.0702C15.1727 22.4006 14.9524 22.6209 14.622 22.6209C14.2916 22.6209 14.0713 22.4006 14.0713 22.0702C14.0713 21.7397 14.2916 21.5195 14.622 21.5195C14.9524 21.5195 15.1727 21.7397 15.1727 22.0702Z" fill="#FFE100"/>
<path d="M8.56381 18.7657C8.56381 19.0962 8.34355 19.3164 8.01311 19.3164C7.68267 19.3164 7.4624 19.0962 7.4624 18.7657C7.4624 18.4353 7.68267 18.215 8.01311 18.215C8.34355 18.215 8.56381 18.4353 8.56381 18.7657Z" fill="#FFE100"/>
<path d="M10.7667 18.7657C10.7667 19.0962 10.5464 19.3164 10.216 19.3164C9.88555 19.3164 9.66528 19.0962 9.66528 18.7657C9.66528 18.4353 9.88555 18.215 10.216 18.215C10.5464 18.215 10.7667 18.4353 10.7667 18.7657Z" fill="#FFE100"/>
<path d="M11.8683 20.4181C11.8683 20.7485 11.648 20.9688 11.3176 20.9688C10.9871 20.9688 10.7668 20.7485 10.7668 20.4181C10.7668 20.0876 10.9871 19.8674 11.3176 19.8674C11.6479 19.8673 11.8683 20.0876 11.8683 20.4181Z" fill="#FFE100"/>
<path d="M9.66513 20.4181C9.66513 20.7485 9.44486 20.9688 9.11443 20.9688C8.78399 20.9688 8.56372 20.7485 8.56372 20.4181C8.56372 20.0876 8.78399 19.8674 9.11443 19.8674C9.44486 19.8673 9.66513 20.0876 9.66513 20.4181Z" fill="#FFE100"/>
<path d="M7.46225 20.4181C7.46225 20.7485 7.24198 20.9688 6.91155 20.9688C6.58111 20.9688 6.36084 20.7485 6.36084 20.4181C6.36084 20.0876 6.58111 19.8674 6.91155 19.8674C7.24198 19.8674 7.46225 20.0876 7.46225 20.4181Z" fill="#FFE100"/>
<path d="M10.7667 22.0702C10.7667 22.4006 10.5464 22.6209 10.216 22.6209C9.88555 22.6209 9.66528 22.4006 9.66528 22.0702C9.66528 21.7397 9.88555 21.5195 10.216 21.5195C10.5464 21.5195 10.7667 21.7397 10.7667 22.0702Z" fill="#FFE100"/>
<path d="M8.56381 22.0702C8.56381 22.4006 8.34355 22.6209 8.01311 22.6209C7.68267 22.6209 7.4624 22.4006 7.4624 22.0702C7.4624 21.7397 7.68267 21.5195 8.01311 21.5195C8.34355 21.5195 8.56381 21.7397 8.56381 22.0702Z" fill="#FFE100"/>
<path d="M6.36045 22.0702C6.36045 22.4006 6.14018 22.6209 5.80974 22.6209C5.4793 22.6209 5.25903 22.4006 5.25903 22.0702C5.25903 21.7397 5.4793 21.5195 5.80974 21.5195C6.14018 21.5195 6.36045 21.7397 6.36045 22.0702Z" fill="#FFE100"/>
</g>
</svg>
