<svg width="140" height="140" viewBox="0 0 140 140" xmlns="http://www.w3.org/2000/svg">
<path fill-rule="evenodd" clip-rule="evenodd" d="M3.51697 0V136.162H5.3219V72.844L10.818 69.375V136.162H12.6069V68.244L18.1029 64.777V136.162H19.642V63.805L25.1379 60.336V136.162H26.928V59.206L32.424 55.737V136.162H33.9769V54.755L39.4729 51.287V136.162H41.231V50.176L46.7269 46.707V136.162H48.2489V45.746L53.746 42.277V136.162H55.536V41.148L61.0299 37.678V136.162H62.569V36.707L68.0649 33.239V136.162H69.855V32.108L72.6019 30.373L75.35 33.764V136.162H76.9039V35.682L82.3999 42.462V136.162H84.1589V44.632L89.653 51.412V136.162H91.0759V53.168L96.5709 59.947V136.162H98.36V62.155L99.4359 63.484L103.856 60.693V136.162H105.395V59.722L110.89 56.252V136.162H112.68V55.124L118.177 51.654V136.162H119.73V50.673L125.226 47.204V136.162H126.984V46.094L132.48 42.623V136.162H139.694V139.679L0.0148926 139.68L0 139.679V0H3.51697ZM5.66895 63.901L74.5879 19.463L101.904 52.936L124.776 38.188L123.016 35.332L136.448 33.239L128.524 44.271L126.622 41.183L101.343 57.482L101.25 57.341L101.075 57.482L73.851 24.121L7.57495 66.858L5.66895 63.901Z"  fill="#DF2F8E"/>
</svg>
