<svg width="298" height="298" viewBox="0 0 298 298" fill="none" xmlns="http://www.w3.org/2000/svg">
<path d="M160.872 14.4332L186.948 2.5809C202.071 -4.29212 219.856 3.07089 225.696 18.6312L235.76 45.4479C238.674 53.2081 244.792 59.3264 252.553 62.2398L279.369 72.3043C294.929 78.1444 302.292 95.9299 295.419 111.053L283.567 137.128C280.137 144.677 280.137 153.324 283.567 160.872L295.419 186.948C302.292 202.071 294.929 219.856 279.369 225.696L252.553 235.76C244.792 238.674 238.674 244.792 235.76 252.553L225.696 279.369C219.856 294.929 202.071 302.292 186.948 295.419L160.872 283.567C153.324 280.137 144.677 280.137 137.128 283.567L111.053 295.419C95.9299 302.292 78.1444 294.929 72.3043 279.369L62.2398 252.553C59.3264 244.792 53.2081 238.674 45.4479 235.76L18.6312 225.696C3.07089 219.856 -4.29212 202.071 2.5809 186.948L14.4332 160.872C17.8631 153.324 17.8631 144.677 14.4332 137.128L2.5809 111.053C-4.29212 95.9299 3.07089 78.1444 18.6312 72.3043L45.4479 62.2398C53.2081 59.3264 59.3264 53.2081 62.2398 45.4479L72.3043 18.6312C78.1444 3.07089 95.9299 -4.29212 111.053 2.5809L137.128 14.4332C144.663 17.8631 153.324 17.8631 160.872 14.4332Z" fill="black"/>
</svg>
