<svg width="23" height="23" viewBox="0 0 23 23" fill="none" xmlns="http://www.w3.org/2000/svg">
<rect x="0.5" y="0.5" width="22" height="22" rx="11" fill="white"/>
<mask id="mask0" mask-type="alpha" maskUnits="userSpaceOnUse" x="0" y="0" width="23" height="23">
<rect x="0.5" y="0.5" width="22" height="22" rx="11" fill="white"/>
</mask>
<g mask="url(#mask0)">
<path d="M13.6852 18.5169C13.6852 18.8529 13.4613 19.0768 13.1253 19.0768C12.7894 19.0768 12.5654 18.8529 12.5654 18.5169C12.5654 18.181 12.7894 17.957 13.1253 17.957C13.4613 17.957 13.6852 18.181 13.6852 18.5169Z" fill="#FFE100"/>
<path d="M13.6852 21.8763C13.6852 22.2122 13.4613 22.4362 13.1253 22.4362C12.7894 22.4362 12.5654 22.2122 12.5654 21.8763C12.5654 21.5404 12.7894 21.3164 13.1253 21.3164C13.4613 21.3164 13.6852 21.5404 13.6852 21.8763Z" fill="#FFE100"/>
<path d="M15.925 18.5169C15.925 18.8529 15.701 19.0768 15.3651 19.0768C15.0291 19.0768 14.8052 18.8529 14.8052 18.5169C14.8052 18.181 15.0291 17.957 15.3651 17.957C15.701 17.957 15.925 18.181 15.925 18.5169Z" fill="#FFE100"/>
<path d="M18.1647 18.5169C18.1647 18.8529 17.9408 19.0768 17.6048 19.0768C17.2689 19.0768 17.0449 18.8529 17.0449 18.5169C17.0449 18.181 17.2689 17.957 17.6048 17.957C17.9408 17.957 18.1647 18.181 18.1647 18.5169Z" fill="#FFE100"/>
<path d="M20.4045 18.5169C20.4045 18.8529 20.1805 19.0768 19.8446 19.0768C19.5086 19.0768 19.2847 18.8529 19.2847 18.5169C19.2847 18.181 19.5086 17.957 19.8446 17.957C20.1805 17.957 20.4045 18.181 20.4045 18.5169Z" fill="#FFE100"/>
<path d="M19.2843 20.1966C19.2843 20.5326 19.0604 20.7565 18.7244 20.7565C18.3885 20.7565 18.1646 20.5326 18.1646 20.1966C18.1646 19.8607 18.3885 19.6367 18.7244 19.6367C19.0604 19.6367 19.2843 19.8607 19.2843 20.1966Z" fill="#FFE100"/>
<path d="M17.0446 20.1966C17.0446 20.5326 16.8206 20.7565 16.4847 20.7565C16.1487 20.7565 15.9248 20.5326 15.9248 20.1966C15.9248 19.8607 16.1487 19.6367 16.4847 19.6367C16.8206 19.6367 17.0446 19.8607 17.0446 20.1966Z" fill="#FFE100"/>
<path d="M14.8053 20.1966C14.8053 20.5326 14.5814 20.7565 14.2454 20.7565C13.9095 20.7565 13.6855 20.5326 13.6855 20.1966C13.6855 19.8607 13.9095 19.6367 14.2454 19.6367C14.5813 19.6367 14.8053 19.8607 14.8053 20.1966Z" fill="#FFE100"/>
<path d="M21.5241 20.1966C21.5241 20.5326 21.3001 20.7565 20.9642 20.7565C20.6282 20.7565 20.4043 20.5326 20.4043 20.1966C20.4043 19.8607 20.6282 19.6367 20.9642 19.6367C21.3001 19.6367 21.5241 19.8607 21.5241 20.1966Z" fill="#FFE100"/>
<path d="M22.6442 21.8763C22.6442 22.2122 22.4203 22.4362 22.0843 22.4362C21.7484 22.4362 21.5244 22.2122 21.5244 21.8763C21.5244 21.5404 21.7484 21.3164 22.0843 21.3164C22.4203 21.3164 22.6442 21.5404 22.6442 21.8763Z" fill="#FFE100"/>
<path d="M20.4045 21.8763C20.4045 22.2122 20.1805 22.4362 19.8446 22.4362C19.5086 22.4362 19.2847 22.2122 19.2847 21.8763C19.2847 21.5404 19.5086 21.3164 19.8446 21.3164C20.1805 21.3164 20.4045 21.5404 20.4045 21.8763Z" fill="#FFE100"/>
<path d="M18.1647 21.8763C18.1647 22.2122 17.9408 22.4362 17.6048 22.4362C17.2689 22.4362 17.0449 22.2122 17.0449 21.8763C17.0449 21.5404 17.2689 21.3164 17.6048 21.3164C17.9408 21.3164 18.1647 21.5404 18.1647 21.8763Z" fill="#FFE100"/>
<path d="M15.925 21.8763C15.925 22.2122 15.701 22.4362 15.3651 22.4362C15.0291 22.4362 14.8052 22.2122 14.8052 21.8763C14.8052 21.5404 15.0291 21.3164 15.3651 21.3164C15.701 21.3164 15.925 21.5404 15.925 21.8763Z" fill="#FFE100"/>
<path d="M6.96646 18.5169C6.96646 18.8529 6.74252 19.0768 6.40657 19.0768C6.07062 19.0768 5.84668 18.8529 5.84668 18.5169C5.84668 18.181 6.07062 17.957 6.40657 17.957C6.74252 17.957 6.96646 18.181 6.96646 18.5169Z" fill="#FFE100"/>
<path d="M6.96646 21.8763C6.96646 22.2122 6.74252 22.4362 6.40657 22.4362C6.07062 22.4362 5.84668 22.2122 5.84668 21.8763C5.84668 21.5404 6.07062 21.3164 6.40657 21.3164C6.74252 21.3164 6.96646 21.5404 6.96646 21.8763Z" fill="#FFE100"/>
<path d="M9.20621 18.5169C9.20621 18.8529 8.98227 19.0768 8.64632 19.0768C8.31037 19.0768 8.08643 18.8529 8.08643 18.5169C8.08643 18.181 8.31037 17.957 8.64632 17.957C8.98227 17.957 9.20621 18.181 9.20621 18.5169Z" fill="#FFE100"/>
<path d="M11.4455 18.5169C11.4455 18.8529 11.2215 19.0768 10.8856 19.0768C10.5496 19.0768 10.3257 18.8529 10.3257 18.5169C10.3257 18.181 10.5496 17.957 10.8856 17.957C11.2215 17.957 11.4455 18.181 11.4455 18.5169Z" fill="#FFE100"/>
<path d="M12.5651 20.1966C12.5651 20.5326 12.3412 20.7565 12.0052 20.7565C11.6693 20.7565 11.4453 20.5326 11.4453 20.1966C11.4453 19.8607 11.6693 19.6367 12.0052 19.6367C12.3412 19.6367 12.5651 19.8607 12.5651 20.1966Z" fill="#FFE100"/>
<path d="M10.3258 20.1966C10.3258 20.5326 10.1019 20.7565 9.76595 20.7565C9.43 20.7565 9.20605 20.5326 9.20605 20.1966C9.20605 19.8607 9.43 19.6367 9.76595 19.6367C10.1019 19.6367 10.3258 19.8607 10.3258 20.1966Z" fill="#FFE100"/>
<path d="M8.08609 20.1966C8.08609 20.5326 7.86215 20.7565 7.5262 20.7565C7.19025 20.7565 6.96631 20.5326 6.96631 20.1966C6.96631 19.8607 7.19025 19.6367 7.5262 19.6367C7.86208 19.6367 8.08609 19.8607 8.08609 20.1966Z" fill="#FFE100"/>
<path d="M11.4455 21.8763C11.4455 22.2122 11.2215 22.4362 10.8856 22.4362C10.5496 22.4362 10.3257 22.2122 10.3257 21.8763C10.3257 21.5404 10.5496 21.3164 10.8856 21.3164C11.2215 21.3164 11.4455 21.5404 11.4455 21.8763Z" fill="#FFE100"/>
<path d="M9.20621 21.8763C9.20621 22.2122 8.98227 22.4362 8.64632 22.4362C8.31037 22.4362 8.08643 22.2122 8.08643 21.8763C8.08643 21.5404 8.31037 21.3164 8.64632 21.3164C8.98227 21.3164 9.20621 21.5404 9.20621 21.8763Z" fill="#FFE100"/>
<path d="M4.72672 18.5169C4.72672 18.8529 4.50277 19.0768 4.16683 19.0768C3.83088 19.0768 3.60693 18.8529 3.60693 18.5169C3.60693 18.181 3.83088 17.957 4.16683 17.957C4.50277 17.957 4.72672 18.181 4.72672 18.5169Z" fill="#FFE100"/>
<path d="M5.84635 20.1966C5.84635 20.5326 5.6224 20.7565 5.28645 20.7565C4.95051 20.7565 4.72656 20.5326 4.72656 20.1966C4.72656 19.8607 4.95051 19.6367 5.28645 19.6367C5.6224 19.6367 5.84635 19.8607 5.84635 20.1966Z" fill="#FFE100"/>
<path d="M3.6066 20.1966C3.6066 20.5326 3.38266 20.7565 3.04671 20.7565C2.71076 20.7565 2.48682 20.5326 2.48682 20.1966C2.48682 19.8607 2.71076 19.6367 3.04671 19.6367C3.38266 19.6367 3.6066 19.8607 3.6066 20.1966Z" fill="#FFE100"/>
<path d="M1.36685 20.1966C1.36685 20.5326 1.14291 20.7565 0.806962 20.7565C0.471014 20.7565 0.24707 20.5326 0.24707 20.1966C0.24707 19.8607 0.471014 19.6367 0.806962 19.6367C1.14291 19.6367 1.36685 19.8607 1.36685 20.1966Z" fill="#FFE100"/>
<path d="M4.72672 21.8763C4.72672 22.2122 4.50277 22.4362 4.16683 22.4362C3.83088 22.4362 3.60693 22.2122 3.60693 21.8763C3.60693 21.5404 3.83088 21.3164 4.16683 21.3164C4.50277 21.3164 4.72672 21.5404 4.72672 21.8763Z" fill="#FFE100"/>
<path d="M2.48697 21.8763C2.48697 22.2122 2.26303 22.4362 1.92708 22.4362C1.59113 22.4362 1.36719 22.2122 1.36719 21.8763C1.36719 21.5404 1.59113 21.3164 1.92708 21.3164C2.26303 21.3164 2.48697 21.5404 2.48697 21.8763Z" fill="#FFE100"/>
<path d="M29.9231 24.1159C27.5715 24.1159 23.5961 20.7564 23.1482 20.4205L23.0922 20.3645L22.9243 20.1965C20.2367 17.173 16.0373 16.0531 12.1739 17.285C11.1101 17.6209 10.2142 17.9009 10.2142 17.9009C10.0462 17.9569 9.82228 17.9009 9.65431 17.7889C9.48633 17.6769 9.43037 17.453 9.48633 17.285C9.5423 17.061 9.48633 16.949 9.43037 16.837C9.20642 16.4451 8.42252 16.2771 8.08657 16.2771C3.4953 16.2771 -1.54393 21.6523 -1.59996 21.7083C-1.82391 21.9322 -2.15986 21.9322 -2.38386 21.7643C-2.60781 21.5403 -2.60781 21.2044 -2.43983 20.9804C-2.15986 20.7004 2.99131 15.1572 8.14254 15.1572C8.31052 15.1572 9.71028 15.2692 10.3822 16.1091C10.4942 16.2771 10.6061 16.4451 10.6622 16.613C10.9981 16.501 11.4461 16.3891 11.8939 16.2211C16.2053 14.8213 20.8525 16.1091 23.8201 19.4126L23.9321 19.5246C25.052 20.5325 28.2994 22.9961 29.9232 22.9961C30.2592 22.9961 30.4831 23.2201 30.4831 23.556C30.4831 23.892 30.2591 24.1159 29.9231 24.1159Z" fill="#FFE100"/>
<path d="M12.5653 3.95899C12.2293 3.95899 12.0054 3.73505 12.0054 3.3991V2.27925C12.0054 1.9433 12.2293 1.71936 12.5653 1.71936C12.9012 1.71936 13.1252 1.9433 13.1252 2.27925V3.3991C13.1252 3.73498 12.9012 3.95899 12.5653 3.95899Z" fill="#FFE100"/>
<path d="M23.2042 13.4776H22.0843C21.7484 13.4776 21.5244 13.2536 21.5244 12.9177C21.5244 12.5817 21.7484 12.3578 22.0843 12.3578H23.2042C23.5401 12.3578 23.764 12.5817 23.764 12.9177C23.764 13.2536 23.5401 13.4776 23.2042 13.4776Z" fill="#FFE100"/>
<path d="M3.04693 13.4776H1.92708C1.59113 13.4776 1.36719 13.2536 1.36719 12.9177C1.36719 12.5817 1.59113 12.3578 1.92708 12.3578H3.04693C3.38288 12.3578 3.60682 12.5817 3.60682 12.9177C3.60682 13.2536 3.38288 13.4776 3.04693 13.4776Z" fill="#FFE100"/>
<path d="M5.84622 6.75859C5.67824 6.75859 5.56624 6.70262 5.4543 6.59062L4.6704 5.80672C4.44646 5.58277 4.44646 5.24683 4.6704 5.02282C4.89434 4.79887 5.23029 4.79887 5.4543 5.02282L6.2382 5.80672C6.46215 6.03066 6.46215 6.36661 6.2382 6.59062C6.1262 6.70262 5.95822 6.75859 5.84622 6.75859Z" fill="#FFE100"/>
<path d="M19.2845 6.75859C19.1165 6.75859 19.0045 6.70262 18.8926 6.59062C18.6686 6.36668 18.6686 6.03073 18.8926 5.80672L19.6765 5.02282C19.9004 4.79887 20.2364 4.79887 20.4604 5.02282C20.6843 5.24676 20.6843 5.58271 20.4604 5.80672L19.6765 6.59062C19.5645 6.70262 19.4525 6.75859 19.2845 6.75859Z" fill="#FFE100"/>
<path d="M7.58206 15.1573C7.58206 15.1573 9.87773 15.2694 9.54178 16.7811C9.54178 16.7251 10.3257 16.5572 10.4376 16.5011C10.7736 16.3891 11.0535 16.2772 11.3895 16.2212H11.4455C13.7411 15.4373 16.2047 15.5493 18.4444 16.3332C18.9483 15.3253 19.2843 14.1495 19.2843 12.9737C19.2843 8.9423 16.0368 5.69482 12.0054 5.69482C7.97404 5.69482 4.72656 8.9423 4.72656 12.9737C4.72656 13.8695 4.95051 14.7654 5.23049 15.6053C6.01426 15.3253 6.79816 15.1573 7.58206 15.1573Z" fill="#FFE100"/>
<path d="M12.0054 5.07861C12.2854 5.07861 12.5653 5.07861 12.8453 5.13458C9.20583 5.5265 6.4063 8.60607 6.4063 12.3575C6.4063 13.4213 6.63025 14.4291 7.0782 15.325C6.57428 15.437 6.07036 15.549 5.56643 15.717C5.06251 14.7091 4.72656 13.5333 4.72656 12.3575C4.72656 8.32616 7.97404 5.07861 12.0054 5.07861Z" fill="white"/>
<path d="M12.0059 5.63855C11.7259 5.63855 11.446 5.63855 11.166 5.69452C14.8055 6.08644 17.605 9.16601 17.605 12.9174C17.605 13.9812 17.3811 14.9891 16.9331 15.885C17.437 15.997 17.941 16.1089 18.4449 16.2769C18.9488 15.269 19.2847 14.0932 19.2847 12.9174C19.2847 8.88603 16.0373 5.63855 12.0059 5.63855Z" fill="#FFA800"/>
<path d="M29.9226 23.5558C27.627 23.5558 23.0917 20.2523 22.5877 19.8604C22.5318 19.8604 22.5318 19.8044 22.4757 19.8044L22.3637 19.6365C19.6761 16.6129 15.4768 15.4931 11.6134 16.7249C10.5496 17.0609 9.65365 17.3409 9.65365 17.3409C9.48568 17.3968 9.26174 17.3409 9.09376 17.2289C8.92579 17.1168 8.86982 16.8929 8.92579 16.7249C8.98176 16.501 8.92579 16.389 8.86982 16.277C8.64587 15.8851 7.86197 15.7171 7.52603 15.7171C2.93475 15.7171 -2.10447 21.0923 -2.16051 21.1482C-2.38445 21.3722 -2.7204 21.3722 -2.94441 21.2042C-3.16836 20.9803 -3.16836 20.6443 -3.00038 20.4203C-2.7204 20.1403 2.43076 14.5972 7.582 14.5972C7.74997 14.5972 9.14973 14.7092 9.82163 15.549C9.93363 15.717 10.0456 15.885 10.1016 16.053C10.4376 15.941 10.8855 15.829 11.3334 15.661C15.6448 14.2613 20.292 15.549 23.2596 18.8526L23.3716 18.9646C24.6594 19.9724 28.2988 22.4361 29.9226 22.4361C30.2585 22.4361 30.4825 22.66 30.4825 22.9959C30.4825 23.3319 30.2586 23.5558 29.9226 23.5558Z" fill="#5200FF"/>
<path d="M12.0052 3.95887C11.6693 3.95887 11.4453 3.73493 11.4453 3.39898V2.27913C11.4453 1.94318 11.6693 1.71924 12.0052 1.71924C12.3412 1.71924 12.5651 1.94318 12.5651 2.27913V3.39898C12.5651 3.73486 12.3412 3.95887 12.0052 3.95887Z" fill="#5200FF"/>
<path d="M22.6436 13.4775H21.5238C21.1878 13.4775 20.9639 13.2535 20.9639 12.9176C20.9639 12.5816 21.1878 12.3577 21.5238 12.3577H22.6436C22.9796 12.3577 23.2035 12.5816 23.2035 12.9176C23.2036 13.2535 22.9796 13.4775 22.6436 13.4775Z" fill="#5200FF"/>
<path d="M2.48729 13.4775H1.36751C1.03156 13.4775 0.807617 13.2535 0.807617 12.9176C0.807617 12.5816 1.03156 12.3577 1.36751 12.3577H2.48736C2.82331 12.3577 3.04725 12.5816 3.04725 12.9176C3.04725 13.2535 2.82324 13.4775 2.48729 13.4775Z" fill="#5200FF"/>
<path d="M5.28665 6.75835C5.11867 6.75835 5.00667 6.70238 4.89473 6.59037L4.11083 5.80647C3.88689 5.58253 3.88689 5.24658 4.11083 5.02257C4.33477 4.79863 4.67072 4.79863 4.89473 5.02257L5.67863 5.80647C5.90258 6.03042 5.90258 6.36637 5.67863 6.59037C5.56663 6.70238 5.39865 6.75835 5.28665 6.75835Z" fill="#5200FF"/>
<path d="M18.7244 6.75835C18.5565 6.75835 18.4444 6.70238 18.3325 6.59037C18.1086 6.36643 18.1086 6.03048 18.3325 5.80647L19.1164 5.02257C19.3404 4.79863 19.6763 4.79863 19.9003 5.02257C20.1243 5.24652 20.1243 5.58246 19.9003 5.80647L19.1164 6.59037C19.0044 6.70238 18.8924 6.75835 18.7244 6.75835Z" fill="#5200FF"/>
<path d="M13.1256 17.9567C13.1256 18.2927 12.9017 18.5166 12.5658 18.5166C12.2298 18.5166 12.0059 18.2927 12.0059 17.9567C12.0059 17.6208 12.2298 17.3969 12.5658 17.3969C12.9016 17.3969 13.1256 17.6208 13.1256 17.9567Z" fill="#5200FF"/>
<path d="M13.1256 21.3161C13.1256 21.6521 12.9017 21.876 12.5658 21.876C12.2298 21.876 12.0059 21.6521 12.0059 21.3161C12.0059 20.9802 12.2298 20.7562 12.5658 20.7562C12.9016 20.7562 13.1256 20.9802 13.1256 21.3161Z" fill="#5200FF"/>
<path d="M15.3649 17.9567C15.3649 18.2927 15.141 18.5166 14.805 18.5166C14.4691 18.5166 14.2451 18.2927 14.2451 17.9567C14.2451 17.6208 14.4691 17.3969 14.805 17.3969C15.141 17.3969 15.3649 17.6208 15.3649 17.9567Z" fill="#5200FF"/>
<path d="M17.6051 17.9567C17.6051 18.2927 17.3812 18.5166 17.0452 18.5166C16.7093 18.5166 16.4854 18.2927 16.4854 17.9567C16.4854 17.6208 16.7093 17.3969 17.0452 17.3969C17.3812 17.3969 17.6051 17.6208 17.6051 17.9567Z" fill="#5200FF"/>
<path d="M19.8444 17.9567C19.8444 18.2927 19.6204 18.5166 19.2845 18.5166C18.9486 18.5166 18.7246 18.2927 18.7246 17.9567C18.7246 17.6208 18.9486 17.3969 19.2845 17.3969C19.6204 17.3969 19.8444 17.6208 19.8444 17.9567Z" fill="#5200FF"/>
<path d="M18.7248 19.6366C18.7248 19.9725 18.5008 20.1964 18.1649 20.1964C17.8289 20.1964 17.605 19.9725 17.605 19.6366C17.605 19.3006 17.8289 19.0767 18.1649 19.0767C18.5008 19.0767 18.7248 19.3006 18.7248 19.6366Z" fill="#5200FF"/>
<path d="M16.485 19.6366C16.485 19.9725 16.2611 20.1964 15.9251 20.1964C15.5892 20.1964 15.3652 19.9725 15.3652 19.6366C15.3652 19.3006 15.5892 19.0767 15.9251 19.0767C16.261 19.0767 16.485 19.3006 16.485 19.6366Z" fill="#5200FF"/>
<path d="M14.2453 19.6366C14.2453 19.9725 14.0213 20.1964 13.6854 20.1964C13.3494 20.1964 13.1255 19.9725 13.1255 19.6366C13.1255 19.3006 13.3494 19.0767 13.6854 19.0767C14.0213 19.0767 14.2453 19.3006 14.2453 19.6366Z" fill="#5200FF"/>
<path d="M14.2453 16.2768C14.2453 16.6128 14.0213 16.8367 13.6854 16.8367C13.3494 16.8367 13.1255 16.6128 13.1255 16.2768C13.1255 15.9409 13.3494 15.7169 13.6854 15.7169C14.0213 15.7169 14.2453 15.9409 14.2453 16.2768Z" fill="#5200FF"/>
<path d="M16.485 16.2768C16.485 16.6128 16.2611 16.8367 15.9251 16.8367C15.5892 16.8367 15.3652 16.6128 15.3652 16.2768C15.3652 15.9409 15.5892 15.7169 15.9251 15.7169C16.261 15.7169 16.485 15.9409 16.485 16.2768Z" fill="#5200FF"/>
<path d="M20.9635 19.6366C20.9635 19.9725 20.7396 20.1964 20.4036 20.1964C20.0677 20.1964 19.8438 19.9725 19.8438 19.6366C19.8438 19.3006 20.0677 19.0767 20.4036 19.0767C20.7396 19.0767 20.9635 19.3006 20.9635 19.6366Z" fill="#5200FF"/>
<path d="M23.2038 19.6366C23.2038 19.9725 22.9798 20.1964 22.6439 20.1964C22.3079 20.1964 22.084 19.9725 22.084 19.6366C22.084 19.3006 22.3079 19.0767 22.6439 19.0767C22.9798 19.0767 23.2038 19.3006 23.2038 19.6366Z" fill="#5200FF"/>
<path d="M22.0837 21.3161C22.0837 21.6521 21.8597 21.876 21.5238 21.876C21.1878 21.876 20.9639 21.6521 20.9639 21.3161C20.9639 20.9802 21.1878 20.7562 21.5238 20.7562C21.8597 20.7562 22.0837 20.9802 22.0837 21.3161Z" fill="#5200FF"/>
<path d="M19.8444 21.3161C19.8444 21.6521 19.6204 21.876 19.2845 21.876C18.9486 21.876 18.7246 21.6521 18.7246 21.3161C18.7246 20.9802 18.9486 20.7562 19.2845 20.7562C19.6204 20.7562 19.8444 20.9802 19.8444 21.3161Z" fill="#5200FF"/>
<path d="M17.6051 21.3161C17.6051 21.6521 17.3812 21.876 17.0452 21.876C16.7093 21.876 16.4854 21.6521 16.4854 21.3161C16.4854 20.9802 16.7093 20.7562 17.0452 20.7562C17.3812 20.7562 17.6051 20.9802 17.6051 21.3161Z" fill="#5200FF"/>
<path d="M15.3649 21.3161C15.3649 21.6521 15.141 21.876 14.805 21.876C14.4691 21.876 14.2451 21.6521 14.2451 21.3161C14.2451 20.9802 14.4691 20.7562 14.805 20.7562C15.141 20.7562 15.3649 20.9802 15.3649 21.3161Z" fill="#5200FF"/>
<path d="M6.40689 17.9567C6.40689 18.2927 6.18295 18.5166 5.847 18.5166C5.51105 18.5166 5.28711 18.2927 5.28711 17.9567C5.28711 17.6208 5.51105 17.3969 5.847 17.3969C6.18288 17.3969 6.40689 17.6208 6.40689 17.9567Z" fill="#5200FF"/>
<path d="M6.40689 21.3161C6.40689 21.6521 6.18295 21.876 5.847 21.876C5.51105 21.876 5.28711 21.6521 5.28711 21.3161C5.28711 20.9802 5.51105 20.7562 5.847 20.7562C6.18288 20.7562 6.40689 20.9802 6.40689 21.3161Z" fill="#5200FF"/>
<path d="M7.52603 16.2768C7.52603 16.6128 7.30209 16.8367 6.96614 16.8367C6.63019 16.8367 6.40625 16.6128 6.40625 16.2768C6.40625 15.9409 6.63019 15.7169 6.96614 15.7169C7.30209 15.7169 7.52603 15.9409 7.52603 16.2768Z" fill="#5200FF"/>
<path d="M5.28678 16.2768C5.28678 16.6128 5.06283 16.8367 4.72688 16.8367C4.39094 16.8367 4.16699 16.6128 4.16699 16.2768C4.16699 15.9409 4.39094 15.7169 4.72688 15.7169C5.06283 15.7169 5.28678 15.9409 5.28678 16.2768Z" fill="#5200FF"/>
<path d="M8.64615 17.9567C8.64615 18.2927 8.42221 18.5166 8.08626 18.5166C7.75031 18.5166 7.52637 18.2927 7.52637 17.9567C7.52637 17.6208 7.75031 17.3969 8.08626 17.3969C8.42221 17.3969 8.64615 17.6208 8.64615 17.9567Z" fill="#5200FF"/>
<path d="M10.8854 17.9567C10.8854 18.2927 10.6615 18.5166 10.3255 18.5166C9.98957 18.5166 9.76562 18.2927 9.76562 17.9567C9.76562 17.6208 9.98957 17.3969 10.3255 17.3969C10.6615 17.3969 10.8854 17.6208 10.8854 17.9567Z" fill="#5200FF"/>
<path d="M12.0055 19.6366C12.0055 19.9725 11.7816 20.1964 11.4456 20.1964C11.1097 20.1964 10.8857 19.9725 10.8857 19.6366C10.8857 19.3006 11.1097 19.0767 11.4456 19.0767C11.7816 19.0767 12.0055 19.3006 12.0055 19.6366Z" fill="#5200FF"/>
<path d="M9.76627 19.6366C9.76627 19.9725 9.54233 20.1964 9.20638 20.1964C8.87043 20.1964 8.64648 19.9725 8.64648 19.6366C8.64648 19.3006 8.87043 19.0767 9.20638 19.0767C9.54233 19.0767 9.76627 19.3006 9.76627 19.6366Z" fill="#5200FF"/>
<path d="M7.52603 19.6366C7.52603 19.9725 7.30209 20.1964 6.96614 20.1964C6.63019 20.1964 6.40625 19.9725 6.40625 19.6366C6.40625 19.3006 6.63019 19.0767 6.96614 19.0767C7.30209 19.0767 7.52603 19.3006 7.52603 19.6366Z" fill="#5200FF"/>
<path d="M10.8854 21.3161C10.8854 21.6521 10.6615 21.876 10.3255 21.876C9.98957 21.876 9.76562 21.6521 9.76562 21.3161C9.76562 20.9802 9.98957 20.7562 10.3255 20.7562C10.6615 20.7562 10.8854 20.9802 10.8854 21.3161Z" fill="#5200FF"/>
<path d="M8.64615 21.3161C8.64615 21.6521 8.42221 21.876 8.08626 21.876C7.75031 21.876 7.52637 21.6521 7.52637 21.3161C7.52637 20.9802 7.75031 20.7562 8.08626 20.7562C8.42221 20.7562 8.64615 20.9802 8.64615 21.3161Z" fill="#5200FF"/>
<path d="M1.9274 17.9567C1.9274 18.2927 1.70346 18.5166 1.36751 18.5166C1.03156 18.5166 0.807617 18.2927 0.807617 17.9567C0.807617 17.6208 1.03156 17.3969 1.36751 17.3969C1.70346 17.3969 1.9274 17.6208 1.9274 17.9567Z" fill="#5200FF"/>
<path d="M4.16666 17.9567C4.16666 18.2927 3.94272 18.5166 3.60677 18.5166C3.27082 18.5166 3.04688 18.2927 3.04688 17.9567C3.04688 17.6208 3.27082 17.3969 3.60677 17.3969C3.94272 17.3969 4.16666 17.6208 4.16666 17.9567Z" fill="#5200FF"/>
<path d="M5.28678 19.6366C5.28678 19.9725 5.06283 20.1964 4.72688 20.1964C4.39094 20.1964 4.16699 19.9725 4.16699 19.6366C4.16699 19.3006 4.39094 19.0767 4.72688 19.0767C5.06283 19.0767 5.28678 19.3006 5.28678 19.6366Z" fill="#5200FF"/>
<path d="M3.04703 19.6366C3.04703 19.9725 2.82309 20.1964 2.48714 20.1964C2.15119 20.1964 1.92725 19.9725 1.92725 19.6366C1.92725 19.3006 2.15119 19.0767 2.48714 19.0767C2.82302 19.0767 3.04703 19.3006 3.04703 19.6366Z" fill="#5200FF"/>
<path d="M4.16666 21.3161C4.16666 21.6521 3.94272 21.876 3.60677 21.876C3.27082 21.876 3.04688 21.6521 3.04688 21.3161C3.04688 20.9802 3.27082 20.7562 3.60677 20.7562C3.94272 20.7562 4.16666 20.9802 4.16666 21.3161Z" fill="#5200FF"/>
<path d="M1.9274 21.3161C1.9274 21.6521 1.70346 21.876 1.36751 21.876C1.03156 21.876 0.807617 21.6521 0.807617 21.3161C0.807617 20.9802 1.03156 20.7562 1.36751 20.7562C1.70346 20.7562 1.9274 20.9802 1.9274 21.3161Z" fill="#5200FF"/>
<path d="M9.54168 17.3407C9.48571 17.3407 9.48571 17.3407 9.42967 17.3407C9.14969 17.2847 8.92575 17.0047 8.98172 16.6688C9.03769 16.4448 8.98172 16.3328 8.92575 16.2208C8.64577 15.8849 7.86194 15.7169 7.52599 15.7169C6.85409 15.7169 6.12622 15.8289 5.39829 16.0528C5.11831 16.1649 4.8384 15.9969 4.7264 15.7169C4.39045 14.765 4.1665 13.8132 4.1665 12.9173C4.1665 8.60595 7.69396 5.07849 12.0053 5.07849C16.3167 5.07849 19.8441 8.60595 19.8441 12.9173C19.8441 14.2051 19.5082 15.4369 18.9483 16.5568C18.8363 16.7807 18.5003 16.8927 18.2764 16.8367C16.1487 16.0528 13.7971 16.0528 11.6694 16.7247L10.6056 17.0607C10.5497 17.0607 10.4936 17.0607 10.4376 17.1167C10.3256 17.1167 10.0457 17.2287 9.87776 17.2846C9.76569 17.3407 9.65368 17.3407 9.54168 17.3407ZM7.58202 14.5971C7.75 14.5971 9.14976 14.7091 9.82166 15.549C9.93366 15.717 10.0456 15.8849 10.0456 16.0529C10.1016 16.0529 10.1016 16.0529 10.1576 16.0529H10.2696L11.2775 15.717C13.5171 14.9891 15.9248 14.9891 18.1644 15.661C18.5563 14.8211 18.7243 13.9253 18.7243 12.9734C18.7243 9.27798 15.7008 6.25444 12.0053 6.25444C8.30989 6.25444 5.28635 9.27798 5.28635 12.9734C5.28635 13.5893 5.39836 14.2612 5.56633 14.9331C6.2942 14.7091 6.9661 14.5971 7.58202 14.5971Z" fill="#5200FF"/>
</g>
</svg>
