<svg width="124" height="184" viewBox="0 0 124 184" fill="#DF2F8E" xmlns="http://www.w3.org/2000/svg">
<path fill-rule="evenodd" clip-rule="evenodd" d="M96.4 0.296021L83.282 27.639H40.382L27.265 0.296021H96.4ZM54.39 88.38L21.325 3.85101L0.140015 25.373L29.215 99.701C36.223 93.782 44.875 89.746 54.39 88.38ZM69.276 88.38L102.34 3.85199L123.526 25.374L94.452 99.702C87.443 93.782 78.792 89.746 69.276 88.38ZM16.2371 138.083C16.2371 112.902 36.652 92.49 61.834 92.49C87.014 92.49 107.429 112.901 107.428 138.083C107.428 163.266 87.013 183.677 61.834 183.677C36.652 183.677 16.2371 163.266 16.2371 138.083ZM27.265 138.083C27.265 157.175 42.742 172.648 61.834 172.648C80.922 172.648 96.4 157.176 96.4 138.083C96.4 118.993 80.921 103.518 61.834 103.518C42.743 103.518 27.265 118.992 27.265 138.083ZM42.496 158.264C44.9115 160.579 47.7406 162.466 50.8617 163.801C54.23 165.242 57.9384 166.04 61.834 166.04C76.6699 166.04 88.8095 154.481 89.7344 139.877C89.772 139.284 89.7911 138.685 89.791 138.082C89.791 131.573 87.56 125.587 83.8268 120.836C83.2934 120.157 82.7295 119.503 82.137 118.877C81.652 118.364 81.154 117.863 80.631 117.389C80.4625 117.236 80.2889 117.088 80.1149 116.94C80.0587 116.892 80.0022 116.844 79.946 116.796C79.9038 116.76 79.862 116.723 79.8202 116.686C79.7531 116.627 79.686 116.568 79.6169 116.51C79.4357 116.361 79.2518 116.22 79.0668 116.077L78.939 115.979C78.8897 115.941 78.841 115.902 78.7923 115.863L78.7075 115.795C78.6743 115.769 78.6409 115.743 78.6072 115.717C78.5916 115.705 78.5759 115.693 78.5601 115.681C78.2821 115.472 77.995 115.273 77.708 115.075L77.6749 115.052L77.6473 115.032L77.5233 114.943C77.5036 114.929 77.4839 114.915 77.464 114.901C77.3808 114.846 77.2966 114.791 77.2119 114.737C77.1495 114.697 77.0868 114.658 77.0242 114.618L77.0221 114.617C76.9467 114.569 76.8712 114.521 76.796 114.473L76.7333 114.433L76.6472 114.377L76.6443 114.375C76.5398 114.307 76.4355 114.239 76.329 114.174L76.3054 114.16L76.2784 114.144C76.2636 114.135 76.2488 114.126 76.2339 114.118L76.204 114.101L76.16 114.076L76.1579 114.075C76.1175 114.052 76.0771 114.03 76.037 114.006C71.874 111.544 67.02 110.127 61.833 110.127C60.8678 110.127 59.9141 110.176 58.9741 110.271C55.6847 110.605 52.5645 111.51 49.7129 112.884C47.5482 113.927 45.5382 115.24 43.7275 116.781C43.4932 116.98 43.2622 117.183 43.0347 117.39C37.4082 122.504 33.876 129.88 33.876 138.082C33.876 144.038 35.7413 149.557 38.9166 154.09C39.9718 155.597 41.1717 156.995 42.496 158.264ZM46.967 158.264L49.806 141.71L37.7791 129.987L54.399 127.571L61.832 112.51L69.264 127.571L85.885 129.987L73.86 141.71L76.7 158.264L61.833 150.448L46.967 158.264Z"/>
</svg>
