<svg width="264" height="320" viewBox="0 0 264 320" fill="none" xmlns="http://www.w3.org/2000/svg">
<path d="M131.556 320C131.556 320 263.111 285.212 263.111 162.489C263.111 93.9235 263.111 48.6969 263.111 48.6969L131.556 0L0 48.6969V162.489C0 285.212 131.556 320 131.556 320Z" fill="#FAC302"/>
<path d="M99.3444 229.525L132.236 211.217L180.533 237.674L171.139 181.32L210 141.259L156.073 133.217L138.793 96.7575L138.795 96.7541L131.799 82L107.872 133.383L54 141.786L93.1387 181.583L84.1184 238L99.344 229.527L99.3444 229.525Z" fill="#DF2F8E"/>
<path d="M100.74 209H95.0859V189.283H73.582V209H67.957V166.344H73.582V184.684H95.0859V166.344H100.74V209ZM123.035 209.586C118.738 209.586 115.242 208.18 112.547 205.367C109.852 202.535 108.504 198.756 108.504 194.029V193.033C108.504 189.889 109.1 187.086 110.291 184.625C111.502 182.145 113.182 180.211 115.33 178.824C117.498 177.418 119.842 176.715 122.361 176.715C126.482 176.715 129.686 178.072 131.971 180.787C134.256 183.502 135.398 187.389 135.398 192.447V194.703H113.924C114.002 197.828 114.91 200.357 116.648 202.291C118.406 204.205 120.633 205.162 123.328 205.162C125.242 205.162 126.863 204.771 128.191 203.99C129.52 203.209 130.682 202.174 131.678 200.885L134.988 203.463C132.332 207.545 128.348 209.586 123.035 209.586ZM122.361 181.168C120.174 181.168 118.338 181.969 116.854 183.57C115.369 185.152 114.451 187.379 114.1 190.25H129.979V189.84C129.822 187.086 129.08 184.957 127.752 183.453C126.424 181.93 124.627 181.168 122.361 181.168ZM147.586 209H142.166V164H147.586V209ZM162.176 209H156.756V164H162.176V209ZM169.441 192.857C169.441 189.752 170.047 186.959 171.258 184.479C172.488 181.998 174.188 180.084 176.355 178.736C178.543 177.389 181.033 176.715 183.826 176.715C188.143 176.715 191.629 178.209 194.285 181.197C196.961 184.186 198.299 188.16 198.299 193.121V193.502C198.299 196.588 197.703 199.361 196.512 201.822C195.34 204.264 193.65 206.168 191.443 207.535C189.256 208.902 186.736 209.586 183.885 209.586C179.588 209.586 176.102 208.092 173.426 205.104C170.77 202.115 169.441 198.16 169.441 193.238V192.857ZM174.891 193.502C174.891 197.018 175.701 199.84 177.322 201.969C178.963 204.098 181.15 205.162 183.885 205.162C186.639 205.162 188.826 204.088 190.447 201.939C192.068 199.771 192.879 196.744 192.879 192.857C192.879 189.381 192.049 186.568 190.389 184.42C188.748 182.252 186.561 181.168 183.826 181.168C181.15 181.168 178.992 182.232 177.352 184.361C175.711 186.49 174.891 189.537 174.891 193.502Z" fill="#F8F9FE"/>
</svg>
