<svg width="42" height="194" viewBox="0 0 42 194" fill="#DF2F8E" xmlns="http://www.w3.org/2000/svg">
<path fill-rule="evenodd" clip-rule="evenodd" d="M21.1071 0.60199L1.02905 43.044L0.988037 43.127L0.532959 44.093L0.417969 44.34L0.411011 44.351H0.295044V159.693H7.58899V49.721L8.04004 50.039L11.453 52.44V159.693H18.7469V57.582L18.825 57.637V49.474L22.5601 49.368V58.222L22.608 58.187V159.693H29.902V53.046L34.623 49.721V159.693H41.917V44.351H41.802L41.795 44.34L41.679 44.093L41.222 43.127L41.184 43.044L21.1071 0.60199ZM41.917 163.555H0.296021V165.964H41.917V163.555ZM0.296021 167.557H41.917V169.965H0.296021V167.557ZM41.917 172.091H0.296021V174.501H41.917V172.091ZM3.12805 193.56C1.56305 193.56 0.296021 192.665 0.296021 191.563V178.138H41.917V191.563C41.917 192.664 40.6479 193.56 39.085 193.56H3.12805Z"/>
</svg>
