<svg width="24" height="24" viewBox="0 0 24 24" fill="none" xmlns="http://www.w3.org/2000/svg">
<path d="M4.47487 16.3743C3.8185 15.718 3.44975 14.8277 3.44975 13.8995C3.44975 12.9712 3.8185 12.081 4.47487 11.4246L6.94975 8.94973L11.8995 13.8995L9.42462 16.3743C8.76824 17.0307 7.87801 17.3995 6.94975 17.3995C6.02149 17.3995 5.13125 17.0307 4.47487 16.3743Z" stroke="#0047FF" stroke-width="2" stroke-linecap="round" stroke-linejoin="round"/>
<path d="M6.94971 8.94974L9.42458 6.47486C9.74959 6.14986 10.1354 5.89205 10.5601 5.71616C10.9847 5.54027 11.4398 5.44974 11.8995 5.44974C12.3591 5.44974 12.8142 5.54027 13.2388 5.71616C13.6635 5.89205 14.0493 6.14986 14.3743 6.47486C14.6993 6.79987 14.9571 7.18571 15.133 7.61035C15.3089 8.03499 15.3995 8.49011 15.3995 8.94974C15.3995 9.40936 15.3089 9.86449 15.133 10.2891C14.9571 10.7138 14.6993 11.0996 14.3743 11.4246L11.8995 13.8995L6.94971 8.94974Z" stroke="#3300FF" stroke-width="2" stroke-linecap="round" stroke-linejoin="round"/>
<path d="M14.3743 16.3743C14.0493 16.0493 13.7915 15.6635 13.6156 15.2389C13.4398 14.8142 13.3492 14.3591 13.3492 13.8995C13.3492 13.4398 13.4398 12.9847 13.6156 12.5601C13.7915 12.1354 14.0493 11.7496 14.3743 11.4246C14.6994 11.0996 15.0852 10.8418 15.5098 10.6659C15.9345 10.49 16.3896 10.3995 16.8492 10.3995C17.3088 10.3995 17.764 10.49 18.1886 10.6659C18.6133 10.8418 18.9991 11.0996 19.3241 11.4246C19.6491 11.7496 19.9069 12.1354 20.0828 12.5601C20.2587 12.9847 20.3492 13.4398 20.3492 13.8995C20.3492 14.3591 20.2587 14.8142 20.0828 15.2389C19.9069 15.6635 19.6491 16.0493 19.3241 16.3743C18.9991 16.6994 18.6133 16.9572 18.1886 17.1331C17.764 17.3089 17.3088 17.3995 16.8492 17.3995C16.3896 17.3995 15.9345 17.3089 15.5098 17.1331C15.0852 16.9572 14.6994 16.6994 14.3743 16.3743V16.3743Z" stroke="#9E00FF" stroke-width="2" stroke-linecap="round" stroke-linejoin="round"/>
</svg>
