<svg width="322" height="322" viewBox="0 0 322 322" fill="none" xmlns="http://www.w3.org/2000/svg">
<path d="M173.757 16.488L201.761 3.75908C218.003 -3.62225 237.103 4.28531 243.375 20.9964L254.184 49.7964C257.313 58.1306 263.884 64.7013 272.218 67.8302L301.018 78.6391C317.729 84.9111 325.636 104.012 318.255 120.253L305.526 148.257C301.843 156.364 301.843 165.651 305.526 173.757L318.255 201.761C325.636 218.003 317.729 237.103 301.018 243.375L272.218 254.184C263.884 257.313 257.313 263.884 254.184 272.218L243.375 301.018C237.103 317.729 218.003 325.636 201.761 318.255L173.757 305.526C165.651 301.843 156.364 301.843 148.257 305.526L120.253 318.255C104.012 325.636 84.9111 317.729 78.6391 301.018L67.8302 272.218C64.7013 263.884 58.1306 257.313 49.7964 254.184L20.9964 243.375C4.28531 237.103 -3.62225 218.003 3.75908 201.761L16.488 173.757C20.1715 165.651 20.1715 156.364 16.488 148.257L3.75908 120.253C-3.62225 104.012 4.28531 84.9111 20.9964 78.6391L49.7964 67.8302C58.1306 64.7013 64.7013 58.1306 67.8302 49.7964L78.6391 20.9964C84.9111 4.28531 104.012 -3.62225 120.253 3.75908L148.257 16.488C156.349 20.1715 165.651 20.1715 173.757 16.488Z" fill="#FAC302"/>
</svg>
